<svg xmlns="http://www.w3.org/2000/svg" height="1296" width="1546" version="1.1" xmlns:xlink="http://www.w3.org/1999/xlink" xmlns:svgjs="http://svgjs.com/svgjs"><rect fill="#f3ebe9" width="1546" height="1296"></rect><g><path d="M1126.57 346.12L1010.09 346.12C995.8 346.12 984.13 334.56 984.13 320.16 984.13 305.88 995.69 294.21 1010.09 294.21L1152.97 294.21C1172.38 294.21 1188.09 309.91 1188.09 329.33 1188.09 348.74 1172.38 364.44 1152.97 364.44L1046.95 364.44" stroke="#41353c" stroke-width="4" stroke-linecap="round" stroke-linejoin="round" opacity="1" fill="none"></path></g><g><path d="M990.22 401.1L1060.28 401.16C1064.08 401.16 1067.84 401.9 1071.35 403.35 1074.86 404.81 1078.05 406.94 1080.73 409.64 1083.41 412.32 1085.54 415.52 1086.98 419.03 1088.42 422.54 1089.16 426.31 1089.14 430.11L1089.08 500.17C1089.09 503.97 1088.34 507.73 1086.89 511.24 1085.43 514.75 1083.3 517.94 1080.61 520.62 1077.92 523.3 1074.73 525.43 1071.21 526.87 1067.7 528.31 1063.93 529.05 1060.14 529.03L990.08 528.97C986.28 528.98 982.52 528.23 979.01 526.78 975.49 525.32 972.31 523.19 969.62 520.5 966.94 517.81 964.82 514.62 963.38 511.1 961.93 507.59 961.19 503.82 961.21 500.03L961.27 429.97C961.31 422.31 964.37 414.98 969.8 409.58 975.22 404.17 982.56 401.12 990.22 401.1V401.1Z" fill="#61ccff" opacity="1" stroke-width="4" stroke="none"></path><path d="M1011.37 447.78L992.95 466.2" stroke="#010202" stroke-width="4" stroke-linecap="round" stroke-linejoin="round" opacity="1" fill="none"></path><path d="M992.95 447.78L1011.37 466.2" stroke="#010202" stroke-width="4" stroke-linecap="round" stroke-linejoin="round" opacity="1" fill="none"></path><path d="M1058.23 447.81L1039.81 466.22" stroke="#010202" stroke-width="4" stroke-linecap="round" stroke-linejoin="round" opacity="1" fill="none"></path><path d="M1039.81 447.8L1058.31 466.29" stroke="#010202" stroke-width="4" stroke-linecap="round" stroke-linejoin="round" opacity="1" fill="none"></path><path d="M1017.51 487.65L1033.77 487.61" stroke="#010202" stroke-width="4" stroke-linecap="round" stroke-linejoin="round" opacity="1" fill="none"></path></g><g><path d="M487.42 767H749.39C760.05 767 768.62 775.63 768.62 786.28V985.95C768.62 996.61 759.99 1005.18 749.39 1005.18H487.42C476.76 1005.18 468.13 996.55 468.13 985.95V786.28C468.19 775.63 476.76 767 487.42 767Z" fill="#000000" opacity="0.2" stroke-width="4" stroke="none"></path><path d="M477.9 757.48H739.88C750.53 757.48 759.1 766.11 759.1 776.77V976.44C759.1 987.1 750.47 995.66 739.88 995.66H477.9C467.24 995.66 458.61 987.03 458.61 976.44V776.77C458.68 766.11 467.24 757.48 477.9 757.48Z" fill="#61ccff" opacity="1" stroke-width="4" stroke="none"></path><path d="M501.25 782.16H584.05C588.93 782.16 592.93 786.16 592.93 791.04V791.42C592.93 796.31 588.93 800.31 584.05 800.31H501.25C496.36 800.31 492.37 796.31 492.37 791.42V791.04C492.37 786.16 496.36 782.16 501.25 782.16Z" fill="#ffffff" opacity="1" stroke-width="4" stroke="none"></path><path d="M705.68 782.16H759.1V800.31H705.68C700.79 800.31 696.8 796.31 696.8 791.42V791.04C696.8 786.16 700.79 782.16 705.68 782.16Z" fill="#ffffff" opacity="1" stroke-width="4" stroke="none"></path><path d="M570.73 866.86H598.39C603.27 866.86 607.27 870.86 607.27 875.75V876.13C607.27 881.01 603.27 885.01 598.39 885.01H570.73C565.84 885.01 561.84 881.01 561.84 876.13V875.75C561.84 870.8 565.84 866.86 570.73 866.86Z" fill="#3c2c5b" opacity="1" stroke-width="4" stroke="none"></path><path d="M543.44 951.57H571.11C575.99 951.57 579.99 955.56 579.99 960.45V960.83C579.99 965.71 575.99 969.71 571.11 969.71H543.44C538.56 969.71 534.56 965.71 534.56 960.83V960.45C534.56 955.5 538.56 951.57 543.44 951.57Z" fill="#3c2c5b" opacity="1" stroke-width="4" stroke="none"></path><path d="M603.84 951.57H657.46C662.34 951.57 666.34 955.56 666.34 960.45V960.83C666.34 965.71 662.34 969.71 657.46 969.71H603.84C598.96 969.71 594.96 965.71 594.96 960.83V960.45C594.96 955.5 598.9 951.57 603.84 951.57Z" fill="#3c2c5b" opacity="1" stroke-width="4" stroke="none"></path><path d="M570.73 909.18H665.2C670.08 909.18 674.08 913.18 674.08 918.07V918.45C674.08 923.33 670.08 927.33 665.2 927.33H570.73C565.84 927.33 561.84 923.33 561.84 918.45V918.07C561.84 913.18 565.84 909.18 570.73 909.18Z" fill="#41353c" opacity="1" stroke-width="4" stroke="none"></path><path d="M501.25 824.48H584.05C588.93 824.48 592.93 828.48 592.93 833.36V833.74C592.93 838.63 588.93 842.63 584.05 842.63H501.25C496.36 842.63 492.37 838.63 492.37 833.74V833.36C492.37 828.48 496.36 824.48 501.25 824.48Z" fill="#9e76dd" opacity="1" stroke-width="4" stroke="none"></path><path d="M627.83 824.35H669.77C674.65 824.35 678.65 828.35 678.65 833.24V833.62C678.65 838.5 674.65 842.5 669.77 842.5H627.83C622.94 842.5 618.95 838.5 618.95 833.62V833.24C618.95 828.29 622.94 824.35 627.83 824.35Z" fill="#9e76dd" opacity="1" stroke-width="4" stroke="none"></path><path d="M477.9 757.48H513.81V995.66H477.9C467.24 995.66 458.61 987.03 458.61 976.44V776.77C458.61 766.11 467.24 757.48 477.9 757.48Z" fill="#61ccff" opacity="1" stroke-width="4" stroke="none"></path><path d="M477.9 757.48H513.81V995.66H477.9C467.24 995.66 458.61 987.03 458.61 976.44V776.77C458.61 766.11 467.24 757.48 477.9 757.48Z" fill="#07afff" opacity="0.2" stroke-width="4" stroke="none"></path><path d="M759.1 812.04H514.45" stroke="#3dc0ff" stroke-width="4" stroke-linejoin="round" opacity="1" fill="none"></path><path d="M759.1 854.87H514.45" stroke="#3dc0ff" stroke-width="4" stroke-linejoin="round" opacity="1" fill="none"></path><path d="M759.1 898.33H514.45" stroke="#3dc0ff" stroke-width="4" stroke-linejoin="round" opacity="1" fill="none"></path><path d="M759.1 939.19H514.45" stroke="#3dc0ff" stroke-width="4" stroke-linejoin="round" opacity="1" fill="none"></path><path d="M513.81 757.48V995.66" stroke="#000000" stroke-width="4" stroke-linejoin="round" opacity="1" fill="none"></path><path d="M480.06 791.23H492.37" stroke="#000000" stroke-width="4" stroke-linecap="round" stroke-linejoin="round" opacity="1" fill="none"></path><path d="M480.06 833.43H492.37" stroke="#000000" stroke-width="4" stroke-linecap="round" stroke-linejoin="round" opacity="1" fill="none"></path><path d="M480.06 875.62H492.37" stroke="#000000" stroke-width="4" stroke-linecap="round" stroke-linejoin="round" opacity="1" fill="none"></path><path d="M480.06 918.45H492.37" stroke="#000000" stroke-width="4" stroke-linecap="round" stroke-linejoin="round" opacity="1" fill="none"></path><path d="M480.06 960.64H492.37" stroke="#000000" stroke-width="4" stroke-linecap="round" stroke-linejoin="round" opacity="1" fill="none"></path></g><g><path d="M330.72 602.43C321.84 602.41 313.33 598.88 307.05 592.6 300.77 586.32 297.23 577.81 297.23 568.93V251.47C297.23 242.59 300.77 234.08 307.05 227.8 313.33 221.52 321.84 217.98 330.72 217.97H742.6C751.48 217.98 759.99 221.52 766.27 227.8 772.55 234.08 776.08 242.59 776.09 251.47V568.93C776.08 577.81 772.55 586.32 766.27 592.6 759.99 598.88 751.48 602.41 742.6 602.43H330.72Z" fill="#cecece" opacity="1" stroke-width="4" stroke="none"></path><path d="M297.25 289.93H777.57" stroke="#e1e1e1" stroke-width="4" opacity="1" fill="none"></path><path d="M332.47 265.95C339.5 265.95 345.21 260.25 345.21 253.22 345.21 246.18 339.5 240.48 332.47 240.48 325.43 240.48 319.73 246.18 319.73 253.22 319.73 260.25 325.43 265.95 332.47 265.95Z" fill="#e1e1e1" opacity="1" stroke-width="4" stroke="none"></path><path d="M371.07 265.95C378.11 265.95 383.81 260.25 383.81 253.22 383.81 246.18 378.11 240.48 371.07 240.48 364.04 240.48 358.33 246.18 358.33 253.22 358.33 260.25 364.04 265.95 371.07 265.95Z" fill="#e1e1e1" opacity="1" stroke-width="4" stroke="none"></path><path d="M409.67 265.95C416.71 265.95 422.41 260.25 422.41 253.22 422.41 246.18 416.71 240.48 409.67 240.48 402.64 240.48 396.93 246.18 396.93 253.22 396.93 260.25 402.64 265.95 409.67 265.95Z" fill="#e1e1e1" opacity="1" stroke-width="4" stroke="none"></path></g><g><path d="M468.15 457.26H364.8L444.6 361.02V529.58" stroke="#3c2c5b" stroke-width="4" stroke-linecap="round" stroke-linejoin="round" opacity="1" fill="none"></path><path d="M715.02 457.26H611.48L691.47 361.02V529.58" stroke="#3c2c5b" stroke-width="4" stroke-linecap="round" stroke-linejoin="round" opacity="1" fill="none"></path><path d="M531.87 361.02H550.19C569.81 361.02 585.69 376.9 585.69 396.53V492.4C585.69 512.02 569.81 527.9 550.19 527.9H531.87C512.25 527.9 496.36 512.02 496.36 492.4V396.53C496.36 376.9 512.25 361.02 531.87 361.02Z" stroke="#3c2c5b" stroke-width="4" stroke-linecap="round" stroke-linejoin="round" opacity="1" fill="none"></path></g><g><path d="M1008.96 664.86H1224.58C1234.76 664.87 1244.52 668.91 1251.72 676.11 1258.92 683.31 1262.96 693.07 1262.97 703.25V726.85C1262.96 737.03 1258.92 746.8 1251.72 753.99 1244.52 761.19 1234.76 765.24 1224.58 765.24H1008.96C998.78 765.24 989.02 761.19 981.82 753.99 974.62 746.8 970.58 737.03 970.57 726.85V703.25C970.58 693.07 974.62 683.31 981.82 676.11 989.02 668.91 998.78 664.87 1008.96 664.86V664.86Z" fill="#41353c" opacity="1" stroke-width="4" stroke="none"></path><path d="M1024.3 734.58C1035.13 734.58 1043.91 725.8 1043.91 714.96 1043.91 704.13 1035.13 695.34 1024.3 695.34 1013.46 695.34 1004.68 704.13 1004.68 714.96 1004.68 725.8 1013.46 734.58 1024.3 734.58Z" stroke="#ffffff" stroke-width="4" stroke-linecap="round" stroke-linejoin="round" opacity="1" fill="none"></path><path d="M1038.18 728.85L1044.15 734.82" stroke="#ffffff" stroke-width="4" stroke-linecap="round" stroke-linejoin="round" opacity="1" fill="none"></path><path d="M1068.66 731.98H1223.19" stroke="#ffffff" stroke-width="4" stroke-linecap="round" stroke-linejoin="round" opacity="1" fill="none"></path></g><g><path d="M1187.39 465.46L1145.01 533.76C1138.94 543.53 1137.21 555.37 1140.17 566.48L1160.2 641.43C1166.18 663.84 1189.22 677.21 1211.67 671.19L1307.7 645.58C1330.15 639.61 1343.48 616.56 1337.51 594.11L1317.47 519.15C1314.51 508.05 1307.06 498.62 1296.94 493.2L1226.18 455.1C1212.51 447.8 1195.54 452.29 1187.39 465.46Z" fill="#ffffff" opacity="1" stroke-width="4" stroke="none"></path><path d="M1208.22 465.71C1212.07 464.67 1216.16 465.17 1219.72 467.04L1290.48 505.14C1297.29 508.84 1302.27 515.16 1304.3 522.66L1324.33 597.66C1328.38 612.86 1319.35 628.4 1304.2 632.5L1208.12 658.06C1192.92 662.11 1177.38 653.08 1173.28 637.93L1153.3 562.97C1151.32 555.47 1152.51 547.53 1156.55 540.91L1198.89 472.62C1201.01 469.21 1204.32 466.75 1208.22 465.71ZM1204.71 452.58C1197.51 454.51 1191.34 459.1 1187.39 465.46L1145.01 533.76C1138.94 543.53 1137.21 555.37 1140.17 566.48L1160.2 641.43C1166.18 663.84 1189.22 677.21 1211.67 671.19L1307.7 645.58C1330.15 639.61 1343.48 616.56 1337.51 594.11L1317.47 519.15C1314.51 508.05 1307.06 498.62 1296.94 493.2L1226.18 455.1C1219.57 451.55 1211.92 450.66 1204.71 452.58Z" fill="#61ccff" opacity="1" stroke-width="4" stroke="none"></path><path d="M1270.17 530.5L1170.38 557.13 1195.77 652.29 1295.56 625.67 1270.17 530.5Z" fill="#616161" opacity="0.2" stroke-width="4" stroke="none"></path><path d="M1276.33 520.48L1176.54 547.11 1201.93 642.27 1301.73 615.65 1276.33 520.48Z" fill="#ffffff" opacity="1" stroke-width="4" stroke="none"></path><path d="M1243.35 597.42L1139.63 564.5 1160.15 641.38C1166.13 663.79 1189.17 677.16 1211.62 671.14L1307.6 645.53C1330.05 639.56 1343.38 616.51 1337.41 594.11L1316.88 517.23 1243.35 597.42Z" fill="#61ccff" opacity="1" stroke-width="4" stroke="none"></path><path d="M1237.18 574.32L1165.19 652.93C1175.01 668.52 1193.81 675.93 1211.62 671.19L1307.6 645.53C1325.42 640.79 1338.05 625 1338.79 606.59L1237.18 574.32Z" fill="#61ccff" opacity="1" stroke-width="4" stroke="none"></path><path d="M1233.98 626.87L1266.15 618.29C1270.69 617.06 1275.33 619.77 1276.56 624.31 1277.8 628.85 1275.08 633.49 1270.54 634.72L1238.37 643.31C1233.83 644.54 1229.19 641.83 1227.96 637.29 1226.72 632.7 1229.44 628.06 1233.98 626.87Z" fill="#ffffff" opacity="1" stroke-width="4" stroke="none"></path><path d="M1240.1 633.98L1264.37 627.52" stroke="#181818" stroke-width="4" stroke-linecap="round" stroke-linejoin="round" opacity="1" fill="none"></path><path d="M1165.14 653.28L1221.69 590.8" stroke="#181818" stroke-width="4" stroke-linecap="round" stroke-linejoin="round" opacity="1" fill="none"></path><path d="M1258.65 581.13L1338.39 606.4" stroke="#181818" stroke-width="4" stroke-linecap="round" stroke-linejoin="round" opacity="1" fill="none"></path><path d="M1154.28 567.66L1140.71 563.56" stroke="#181818" stroke-width="4" stroke-linecap="round" stroke-linejoin="round" opacity="1" fill="none"></path><path d="M1305.87 527.69L1315.94 517.38" stroke="#181818" stroke-width="4" stroke-linecap="round" stroke-linejoin="round" opacity="1" fill="none"></path></g><g><path d="M1269.13 424.28H1344.12C1347.2 424.28 1350.25 424.89 1353.11 426.07 1355.96 427.25 1358.55 428.98 1360.73 431.16 1362.91 433.34 1364.64 435.93 1365.82 438.79 1367 441.64 1367.61 444.69 1367.61 447.78V478.6C1367.61 481.68 1367 484.74 1365.82 487.59 1364.64 490.44 1362.91 493.03 1360.73 495.21 1358.55 497.4 1355.96 499.13 1353.11 500.31 1350.25 501.49 1347.2 502.09 1344.12 502.09H1269.13C1266.05 502.09 1263 501.49 1260.14 500.31 1257.29 499.13 1254.7 497.4 1252.52 495.21 1250.34 493.03 1248.61 490.44 1247.43 487.59 1246.25 484.74 1245.64 481.68 1245.64 478.6V447.78C1245.64 444.69 1246.25 441.64 1247.43 438.79 1248.61 435.93 1250.34 433.34 1252.52 431.16 1254.7 428.98 1257.29 427.25 1260.14 426.07 1263 424.89 1266.05 424.28 1269.13 424.28Z" fill="#3c2c5b" opacity="1" stroke-width="4" stroke="none"></path><path d="M1288.83 480.01L1269.49 463.41 1288.83 446.89" stroke="#e3e3e3" stroke-width="4" stroke-linecap="round" stroke-linejoin="round" opacity="1" fill="none"></path><path d="M1324.33 446.89L1343.67 463.41 1324.33 480.01" stroke="#e3e3e3" stroke-width="4" stroke-linecap="round" stroke-linejoin="round" opacity="1" fill="none"></path><path d="M1312.14 445.83L1301.02 480.45" stroke="#e3e3e3" stroke-width="4" stroke-linecap="round" stroke-linejoin="round" opacity="1" fill="none"></path></g><g><path d="M457.93 1077.36C493.18 1077.36 521.75 1048.79 521.75 1013.55 521.75 978.31 493.18 949.74 457.93 949.74 422.69 949.74 394.12 978.31 394.12 1013.55 394.12 1048.79 422.69 1077.36 457.93 1077.36Z" fill="#3c2c5b" opacity="1" stroke-width="4" stroke="none"></path><path d="M457.93 1051.98C479.16 1051.98 496.36 1034.77 496.36 1013.55 496.36 992.32 479.16 975.12 457.93 975.12 436.71 975.12 419.51 992.32 419.51 1013.55 419.51 1034.77 436.71 1051.98 457.93 1051.98Z" fill="#754dc3" opacity="1" stroke-width="4" stroke="none"></path><path d="M470.98 992.94L457.93 1013.55 467.56 1025.88" stroke="#000000" stroke-width="4" stroke-linecap="round" stroke-linejoin="round" opacity="1" fill="none"></path></g><g><path d="M457.9 755.33L457.44 690.12 472.34 705.4C481.93 704.42 491.45 705.7 500.39 709.28L499.15 688.41 521.76 694.66 522.83 681.24C510.67 670.13 494.77 663.97 478.3 664 441.76 664 412.14 693.62 412.14 730.15 412.11 750.58 421.58 769.88 437.72 782.4L431.53 745.96 457.9 755.33Z" fill="#33b8ff" opacity="1" stroke-width="4" stroke="none"></path><path d="M465.28 731.28C471.62 728.79 478.65 728.24 485.32 729.53L473.08 716.91C470.39 717.22 467.85 717.8 465.22 718.53L465.28 731.28Z" fill="#33b8ff" opacity="1" stroke-width="4" stroke="none"></path><path d="M529.87 688.62L528.62 704.34 507.36 698.45 510.67 755.45 498.99 743.52 495.07 746.85C487.11 738.91 474.8 738.24 465.37 744.33L465.53 766.05 441.21 757.32 446.41 787.98C456.18 793.37 467.18 796.21 478.36 796.18 514.9 796.18 544.51 766.57 544.51 730.03 544.51 714.99 539.34 700.35 529.87 688.62Z" fill="#33b8ff" opacity="1" stroke-width="4" stroke="none"></path><path d="M501.94 735.61L501.17 722.53C495.78 719.59 489.67 717.6 483.54 716.89L501.94 735.61Z" fill="#33b8ff" opacity="1" stroke-width="4" stroke="none"></path><path d="M465.22 718.61C467.82 717.87 470.52 717.35 473.21 717.05L465.16 708.81 465.22 718.61Z" fill="#ffffff" opacity="1" stroke-width="4" stroke="none"></path><path d="M501.18 722.62L500.38 709.11C491.44 705.56 481.76 704.21 472.17 705.22L483.78 717.14C489.9 717.81 495.78 719.68 501.18 722.62Z" fill="#ffffff" opacity="1" stroke-width="4" stroke="none"></path><path d="M436.22 722.31L444.64 730.74C448.44 726.94 452.85 723.81 457.69 721.49L457.59 708.59C449.57 711.56 442.25 716.25 436.22 722.31Z" fill="#ffffff" opacity="1" stroke-width="4" stroke="none"></path><path d="M512.05 730.74L520.47 722.31C516.79 718.64 512.69 715.48 508.19 712.88L509.08 728.01C510.09 728.9 511.07 729.79 512.05 730.74Z" fill="#ffffff" opacity="1" stroke-width="4" stroke="none"></path><path d="M465.28 731.16L465.37 744.46C474.81 738.36 487.24 739.68 495.17 747.61L499.12 743.66 485.19 729.39C478.54 728.07 471.62 728.68 465.28 731.16Z" fill="#ffffff" opacity="1" stroke-width="4" stroke="none"></path><path d="M453.07 739.16L457.82 743.94 457.76 735.21C456.11 736.4 454.51 737.72 453.07 739.16Z" fill="#ffffff" opacity="1" stroke-width="4" stroke="none"></path><path d="M469.91 756.03L478.33 764.46 486.75 756.03C482.09 751.38 474.56 751.38 469.91 756.03Z" fill="#ffffff" opacity="1" stroke-width="4" stroke="none"></path></g><g><path d="M771.9 314.05C755.1 304.75 738.9 300.75 728.1 305.05 703.1 313.95 691.8 356.05 691.4 357.75 691.4 357.75 682.2 357.65 680.9 361.35 679.4 365.95 686.1 372.75 686.1 372.75 682.5 383.15 678.5 397.25 684.4 409.45 690 420.95 704.7 426.95 723.1 423.95L722.5 430.75 794.1 441.55C795 438.55 800.3 384.35 801.3 374.05 803.3 352.25 798.8 328.85 771.9 314.05Z" fill="#efccb8" opacity="1" stroke-width="4" stroke="none"></path><path d="M723.2 424.05C723.2 424.05 734.2 421.45 740.9 418.15L721.7 440.05 723.2 424.05Z" fill="#3c2c5b" opacity="0.2" stroke-width="4" stroke="none"></path><path d="M967.6 1107.05L1040.1 1074.25 1036.29 1054.02C1035.6 1049.85 1034.5 1045.85 1033.4 1042.05 1032.6 1039.35 1031.8 1036.55 1030.9 1033.75 1027.5 1022.55 1023.4 1010.05 1018.4 996.25 1013.3 982.05 1008 969.25 1002.6 957.45L904.5 992.05C918 1012.55 931 1033.45 939.1 1049.95 941.3 1054.15 943.1 1058.75 944.7 1063.25L967.6 1107.05Z" fill="#efccb8" opacity="1" stroke-width="4" stroke="none"></path><path d="M1006.5 1066.75C993.3 1072.35 989.3 1094.15 980.9 1095.45 972.6 1096.75 980.3 1075.75 975.1 1063.45 970.5 1052.65 959.9 1056.55 944.4 1063.15 945.4 1065.95 946.2 1068.75 946.9 1071.55 948.4 1078.05 948.6 1083.65 947.1 1088.05 939.2 1111.05 918.5 1123.15 918 1145.05L918.1 1145.65 1045.1 1091.65V1091.55C1042.7 1079.05 1039.8 1066.25 1036.4 1053.75L1006.5 1066.75Z" fill="#41353c" opacity="1" stroke-width="4" stroke="none"></path><path d="M962.9 1089.35L947.63 1087.92" stroke="#33b8ff" stroke-width="4" stroke-linecap="round" stroke-linejoin="round" opacity="1" fill="none"></path><path d="M958.9 1105.55L941.91 1100.18" stroke="#33b8ff" stroke-width="4" stroke-linecap="round" stroke-linejoin="round" opacity="1" fill="none"></path><path d="M678.6 409.05C670.3 405.35 662.4 419.75 655.1 427.45 651.7 431.05 647.6 432.85 645.9 429.45 638.7 415.15 672.5 411.05 675.6 404.95 678.7 398.85 673.6 394.75 661.3 396.75 642.9 391.65 625.8 399.95 618.3 412.05 610.1 425.35 610.8 429.55 594.8 458.05 591.9 463.25 588.9 468.85 586.1 474.45L633.4 504.35 659.3 460.15C659.2 460.15 687.8 413.15 678.6 409.05Z" fill="#efccb8" opacity="1" stroke-width="4" stroke="none"></path><path d="M842.2 484.75C828.9 460.75 806.4 446.85 794.1 441.75 794.4 440.85 795 435.95 795.7 429.15L722.5 429.45 721.4 440.55C721.4 440.55 702.1 440.95 688.7 444.65 677.5 447.75 669.3 450.95 659 460.15L628.3 496.85 586.5 473.15C566.3 513.35 550.8 562.95 580.2 586.85 619.1 618.55 679.4 560.35 679.4 560.35L700.1 627.95 812.7 629.75 832.9 646.05C832.9 646.05 848.9 644.55 858.3 639.05 902.4 613.85 857.6 512.35 842.2 484.75Z" fill="#ffc930" opacity="1" stroke-width="4" stroke="none"></path><path d="M888.2 483.65C880 420.25 815.6 422.25 806.4 375.25 800.9 347.15 801.6 324.75 774.7 309.85 757.9 300.55 738.9 300.75 728.1 305.05 714.6 309.85 705.4 323.05 700.1 334.45L714.7 347.35C714.7 347.35 738.33 334.26 737.9 335.25 727.7 348.55 722.9 355.25 722.9 355.25L738.7 370.45C738.7 370.45 769.3 354.05 775.6 373.65 781.9 393.25 751.1 406.95 751.1 406.95 745 464.15 770.6 483.75 770.6 483.75H793.5C793.5 483.75 786.34 453.48 788 455.15 797.2 467.45 813.1 483.75 813.1 483.75L888.2 483.65Z" fill="#7c5555" opacity="1" stroke-width="4" stroke="none"></path><path d="M812.6 627.85L826.8 541.95" stroke="#3b3934" stroke-width="4" stroke-linecap="round" stroke-linejoin="round" opacity="1" fill="none"></path><path d="M819.7 593.05L834 599.15" stroke="#3b3934" stroke-width="4" stroke-linecap="round" stroke-linejoin="round" opacity="1" fill="none"></path><path d="M680.2 559.65L702.1 541.45" stroke="#3b3934" stroke-width="4" stroke-linecap="round" stroke-linejoin="round" opacity="1" fill="none"></path><path d="M634.6 407.95C641.68 402.56 651.93 398.4 661.14 396.81" stroke="#9d6d52" stroke-width="4" stroke-linecap="round" stroke-linejoin="round" opacity="1" fill="none"></path><path d="M695.8 381.85L704.2 381.45" stroke="#9d6d52" stroke-width="4" stroke-linecap="round" stroke-linejoin="round" opacity="1" fill="none"></path><path d="M723.8 423.85C727.9 422.35 731.9 420.85 735.9 419.35" stroke="#9d6d52" stroke-width="4" stroke-linecap="round" stroke-linejoin="round" opacity="1" fill="none"></path><path d="M722.5 440.65H731.6" stroke="#3b3934" stroke-width="4" stroke-linecap="round" stroke-linejoin="round" opacity="1" fill="none"></path><path d="M748 386.25L757 381.85" stroke="#9d6d52" stroke-width="4" stroke-linecap="round" stroke-linejoin="round" opacity="1" fill="none"></path><path d="M706.7 364.35C708.47 364.35 709.9 362.92 709.9 361.15 709.9 359.38 708.47 357.95 706.7 357.95 704.93 357.95 703.5 359.38 703.5 361.15 703.5 362.92 704.93 364.35 706.7 364.35Z" fill="#221f1f" opacity="1" stroke-width="4" stroke="none"></path><path d="M803.9 325.15C819.42 325.15 832 312.57 832 297.05 832 281.53 819.42 268.95 803.9 268.95 788.38 268.95 775.8 281.53 775.8 297.05 775.8 312.57 788.38 325.15 803.9 325.15Z" fill="#7c5555" opacity="1" stroke-width="4" stroke="none"></path><path d="M751.1 285.25L818.7 347.65" stroke="#33b8ff" stroke-width="4" stroke-linecap="round" stroke-linejoin="round" opacity="1" fill="none"></path><path d="M1012.5 981.05C1009.2 972.75 1005.8 964.85 1002.4 957.45L905.3 993.45 1012.5 981.05Z" fill="#9d6d52" opacity="0.2" stroke-width="4" stroke="none"></path><path d="M813.1 1090.55C814.5 1077.95 815.7 1063.45 816.6 1047.15 817.4 1033.35 817.6 1020.35 817.2 1008.35L715 1008.25C719.3 1032.25 722.5 1054.75 722.7 1072.25 722.7 1075.75 722.7 1078.95 722.5 1082.15L730 1124.35 746.2 1136.95 804.4 1130.35 810.6 1109.65C811.2 1105.35 811.8 1101.05 812.3 1096.75 812.7 1094.65 813 1092.65 813.1 1090.55Z" fill="#efccb8" opacity="1" stroke-width="4" stroke="none"></path><path d="M744.9 1125.95C736.7 1123.95 752.1 1107.55 752.1 1094.25 752.1 1082.15 740.3 1081.95 722.6 1081.95H722.5C722.1 1087.65 721.2 1092.65 719.8 1096.65 718.9 1099.35 717.4 1101.95 715.5 1104.05 699.1 1122.15 675.5 1125.85 666.4 1144.95L666.5 1149.15 802.9 1147.25 804.4 1144.95C807 1133.15 809.1 1121.25 810.7 1109.45H779.7C765.5 1109.55 753.2 1128.05 744.9 1125.95Z" fill="#41353c" opacity="1" stroke-width="4" stroke="none"></path><path d="M817.3 1008.45H715.1L817.2 1034.75C817.5 1025.55 817.5 1016.75 817.3 1008.45Z" fill="#9d6d52" opacity="0.2" stroke-width="4" stroke="none"></path><path d="M936.3 847.75C907.6 807.35 900.8 756.45 876.1 706.15 851.4 655.85 812.5 627.85 812.5 627.85H778.1C778.1 627.75 778 627.75 778 627.75H700.1C700.1 627.75 681.2 751.35 697.3 903.05 700.7 935.65 708.8 975.75 715 1010.45L834.7 1011.05C843.9 978.15 807.4 935.15 798.4 896.85 792.6 871.85 796.5 841.65 801.3 810.55 816.9 842.95 834.2 876.95 852.4 909.95 867.1 936.45 887.3 965.95 905.4 993.55L1021.3 951.05C1012 897.85 950.9 868.25 936.3 847.75Z" fill="#3c2c5b" opacity="1" stroke-width="4" stroke="none"></path><path d="M812.6 627.85L821.23 634.91 832.8 646.15C833.1 646.15 845 644.95 854.1 641.15 831 623.55 822.3 568.65 822.3 568.65L812.6 627.85Z" fill="#3b3934" opacity="0.2" stroke-width="4" stroke="none"></path><path d="M613.4 488.35L597.7 538.35 628.4 496.85 613.4 488.35Z" fill="#3b3934" opacity="0.2" stroke-width="4" stroke="none"></path><path d="M728.2 1112.05L714.93 1104.74" stroke="#33b8ff" stroke-width="4" stroke-linecap="round" stroke-linejoin="round" opacity="1" fill="none"></path><path d="M717.7 1124.35L705.43 1113.84" stroke="#33b8ff" stroke-width="4" stroke-linecap="round" stroke-linejoin="round" opacity="1" fill="none"></path><path d="M813.2 744.85C833.5 845.55 866.6 859.35 871.2 941.35 864.4 930.65 854.6 914.35 849 904.25 819.8 847.85 826 864.15 802 811.45L813.2 744.85Z" fill="#090909" opacity="0.2" stroke-width="4" stroke="none"></path><path d="M849.4 665.45H831.1L836.6 685.85C839.4 696.15 850.6 704.45 858.8 704.45 865.6 704.45 869.5 702.35 871.9 698.95" stroke="#090909" stroke-width="4" stroke-linecap="round" stroke-linejoin="round" opacity="1" fill="none"></path><path d="M801.2 810.55C804.6 782.05 812.9 754.15 814.6 726.45" stroke="#000000" stroke-width="4" stroke-linecap="round" stroke-linejoin="round" opacity="1" fill="none"></path><path d="M776.7 704.55C786.9 704.55 793 696.25 790.3 686.05L784.8 665.75H747.8L753.3 686.05C756.1 696.25 766.6 704.55 776.7 704.55Z" stroke="#090909" stroke-width="4" stroke-linecap="round" stroke-linejoin="round" opacity="1" fill="none"></path><path d="M720.8 628.95C715.1 672.95 713.1 789.15 724.6 856.95 735.8 923.45 752.2 957.15 755.7 1007.75" stroke="#090909" stroke-width="4" stroke-linecap="round" stroke-linejoin="round" opacity="1" fill="none"></path><path d="M598 538.35L627.6 497.35" stroke="#3b3934" stroke-width="4" stroke-linecap="round" stroke-linejoin="round" opacity="1" fill="none"></path><path d="M1047.3 1106.55L920.5 1160.05C918.7 1155.25 917.8 1149.85 917.9 1144.75L1045 1091.15C1046.9 1101.05 1047.3 1106.55 1047.3 1106.55Z" fill="#3c2c5b" opacity="1" stroke-width="4" stroke="none"></path><path d="M800.5 1160.05H662.9C663.2 1154.85 664.4 1149.75 666.5 1145.05H804.5C802.2 1155.15 800.5 1160.05 800.5 1160.05Z" fill="#3c2c5b" opacity="1" stroke-width="4" stroke="none"></path></g></svg>